<svg width="274" height="36" viewBox="0 0 274 36" fill="none" xmlns="http://www.w3.org/2000/svg">
<path d="M11.5169 26.936H21.7889V35H0.860938V1.016H11.5169V26.936ZM35.7982 9.512V13.688H46.3582V21.704H35.7982V26.504H47.7982V35H25.1422V1.016H47.7982V9.512H35.7982ZM72.6461 12.632C72.2301 11.96 71.6381 11.448 70.8701 11.096C70.1021 10.712 69.1741 10.52 68.0861 10.52C66.0381 10.52 64.4541 11.192 63.3341 12.536C62.2141 13.848 61.6541 15.656 61.6541 17.96C61.6541 20.616 62.2781 22.6 63.5261 23.912C64.7741 25.224 66.6941 25.88 69.2861 25.88C71.7501 25.88 73.7341 24.888 75.2381 22.904H66.7421V15.368H84.0701V26.024C82.5981 28.552 80.5661 30.728 77.9741 32.552C75.3821 34.344 72.1021 35.24 68.1341 35.24C64.6141 35.24 61.5421 34.52 58.9181 33.08C56.3261 31.608 54.3261 29.56 52.9181 26.936C51.5421 24.312 50.8541 21.32 50.8541 17.96C50.8541 14.6 51.5421 11.608 52.9181 8.984C54.3261 6.36 56.3261 4.328 58.9181 2.888C61.5101 1.416 64.5501 0.679998 68.0381 0.679998C72.4861 0.679998 76.1021 1.752 78.8861 3.896C81.7021 6.04 83.3661 8.952 83.8781 12.632H72.6461ZM109.7 29.864H98.3718L96.6918 35H85.5078L97.9398 1.016H110.228L122.612 35H111.38L109.7 29.864ZM107.108 21.848L104.036 12.392L100.964 21.848H107.108ZM135.689 26.936H145.961V35H125.033V1.016H135.689V26.936ZM168.126 9.512V13.688H178.686V21.704H168.126V26.504H180.126V35H157.47V1.016H180.126V9.512H168.126ZM205.934 29.864H194.606L192.926 35H181.742L194.174 1.016H206.462L218.846 35H207.614L205.934 29.864ZM203.342 21.848L200.27 12.392L197.198 21.848H203.342ZM234.563 35.336C230.499 35.336 227.139 34.392 224.483 32.504C221.859 30.584 220.435 27.784 220.211 24.104H231.539C231.699 26.056 232.563 27.032 234.131 27.032C234.707 27.032 235.187 26.904 235.571 26.648C235.987 26.36 236.195 25.928 236.195 25.352C236.195 24.552 235.763 23.912 234.899 23.432C234.035 22.92 232.691 22.344 230.867 21.704C228.691 20.936 226.883 20.184 225.443 19.448C224.035 18.712 222.819 17.64 221.795 16.232C220.771 14.824 220.275 13.016 220.307 10.808C220.307 8.6 220.867 6.728 221.987 5.192C223.139 3.624 224.691 2.44 226.643 1.64C228.627 0.839998 230.851 0.439999 233.315 0.439999C237.475 0.439999 240.771 1.4 243.203 3.32C245.667 5.24 246.963 7.944 247.091 11.432H235.619C235.587 10.472 235.347 9.784 234.899 9.368C234.451 8.952 233.907 8.744 233.267 8.744C232.819 8.744 232.451 8.904 232.163 9.224C231.875 9.512 231.731 9.928 231.731 10.472C231.731 11.24 232.147 11.88 232.979 12.392C233.843 12.872 235.203 13.464 237.059 14.168C239.203 14.968 240.963 15.736 242.339 16.472C243.747 17.208 244.963 18.232 245.987 19.544C247.011 20.856 247.523 22.504 247.523 24.488C247.523 26.568 247.011 28.44 245.987 30.104C244.963 31.736 243.475 33.016 241.523 33.944C239.571 34.872 237.251 35.336 234.563 35.336ZM261.923 9.512V13.688H272.483V21.704H261.923V26.504H273.923V35H251.267V1.016H273.923V9.512H261.923Z" fill="url(#paint0_linear_93_147)"/>
<defs>
<linearGradient id="paint0_linear_93_147" x1="-32.262" y1="-8" x2="188.534" y2="89.593" gradientUnits="userSpaceOnUse">
<stop stop-color="#2F6EE8"/>
<stop offset="0.370801" stop-color="#2558CD"/>
<stop offset="1" stop-color="#00068A"/>
</linearGradient>
</defs>
</svg>
